<svg xmlns="http://www.w3.org/2000/svg" width="512" height="512" viewBox="0 0 512 512">
  <title>风暴之眼</title>
  <rect width="512" height="512" rx="88" fill="#171a18"/>
  <path d="M73 256C120 166 185 118 256 118s136 48 183 138c-47 90-112 138-183 138S120 346 73 256Z" fill="#202723" stroke="#F7F8F5" stroke-width="24" stroke-linejoin="round"/>
  <path d="M131 245c30-65 88-102 157-91-52 11-91 50-97 101-5 44 16 85 52 107-65-6-115-51-124-111" fill="none" stroke="#63D6BD" stroke-width="29" stroke-linecap="round"/>
  <path d="M381 267c-30 65-88 102-157 91 52-11 91-50 97-101 5-44-16-85-52-107 65 6 115 51 124 111" fill="none" stroke="#F2B84B" stroke-width="29" stroke-linecap="round"/>
  <circle cx="256" cy="256" r="68" fill="#F7F8F5"/>
  <circle cx="256" cy="256" r="34" fill="#171A18"/>
  <circle cx="274" cy="238" r="10" fill="#63D6BD"/>
</svg>
